<svg width="410" height="110" viewBox="0 0 410 110" fill="none" xmlns="http://www.w3.org/2000/svg">
<circle cx="55" cy="55" r="55" fill="url(#paint0_linear_10_15)"/>
<g filter="url(#filter0_d_10_15)">
<path d="M51.9125 82.0995C53.9325 87.3031 57.7902 90.3922 63.2667 92.5745C55.9034 93.4337 44.7778 90.16 40.5042 83.3089C36.3047 76.5768 36.8672 67.2841 42.0455 60.4342C46.5711 54.4476 52.7319 50.432 58.8727 46.3848C62.8148 43.7867 66.9825 41.5023 70.3839 38.0837C65.1481 40.4684 59.912 42.7822 54.4703 44.596C50.3791 45.9596 46.1714 47.0097 42.3498 49.1081C36.4837 52.3292 33.8785 58.0066 35.2794 64.5635C35.3299 64.7995 35.2859 65.0557 35.2859 65.2939C34.2487 65.7284 34.04 64.8533 33.6828 64.3709C26.1223 54.1629 30.0021 41.2269 42.0089 35.9097C47.3457 33.5463 53.1346 32.8297 58.5062 30.6467C52.5896 32.2074 46.4648 32.8262 40.6229 34.892C41.8841 32.7437 43.9947 32.0093 46.0423 31.2797C53.2848 28.6994 60.9039 27.3269 68.0674 24.4925C71.3162 23.2071 74.5076 21.7836 75.3324 17.742C76.8758 17.7345 77.4003 18.9385 78.0419 19.8781C82.5239 26.4417 81.6601 35.213 76.0138 41.9168C71.0939 47.7582 65.1257 52.5298 59.8185 57.9753C56.2908 61.5948 53.0379 65.3611 51.3956 70.2614C50.6343 73.375 50.6343 75.3538 50.6343 75.3538C50.6343 75.3538 51.0893 79.9258 51.9125 82.0995Z" fill="white"/>
</g>
<path d="M131.072 54.6C131.072 50.2053 132.032 46.28 133.952 42.824C135.872 39.3253 138.496 36.616 141.824 34.696C145.152 32.7333 148.864 31.752 152.96 31.752C157.952 31.752 162.219 32.9467 165.76 35.336C169.344 37.6827 171.947 41.0107 173.568 45.32H168.32C167.04 42.2907 165.077 39.9227 162.432 38.216C159.829 36.5093 156.672 35.656 152.96 35.656C149.675 35.656 146.709 36.424 144.064 37.96C141.461 39.496 139.413 41.7147 137.92 44.616C136.427 47.4747 135.68 50.8027 135.68 54.6C135.68 58.3973 136.427 61.7253 137.92 64.584C139.413 67.4427 141.461 69.64 144.064 71.176C146.709 72.712 149.675 73.48 152.96 73.48C156.672 73.48 159.829 72.648 162.432 70.984C165.077 69.2773 167.04 66.9307 168.32 63.944H173.568C171.947 68.2107 169.344 71.5173 165.76 73.864C162.176 76.2107 157.909 77.384 152.96 77.384C148.864 77.384 145.152 76.424 141.824 74.504C138.496 72.5413 135.872 69.832 133.952 66.376C132.032 62.92 131.072 58.9947 131.072 54.6ZM199.135 41.416C201.78 41.416 204.148 41.9707 206.239 43.08C208.372 44.1893 210.036 45.896 211.231 48.2C212.468 50.4613 213.087 53.2347 213.087 56.52V77H208.671V57.032C208.671 53.2347 207.711 50.3333 205.791 48.328C203.914 46.3227 201.332 45.32 198.047 45.32C194.676 45.32 191.988 46.3867 189.983 48.52C187.978 50.6533 186.975 53.7893 186.975 57.928V77H182.495V29.64H186.975V48.008C188.084 45.9173 189.706 44.296 191.839 43.144C194.015 41.992 196.447 41.416 199.135 41.416ZM220.947 59.464C220.947 55.88 221.651 52.744 223.059 50.056C224.51 47.3253 226.494 45.2347 229.011 43.784C231.571 42.2907 234.451 41.544 237.651 41.544C240.979 41.544 243.838 42.312 246.227 43.848C248.659 45.384 250.408 47.3467 251.475 49.736V42.056H255.955V77H251.475V69.256C250.366 71.6453 248.595 73.6293 246.163 75.208C243.774 76.744 240.915 77.512 237.587 77.512C234.43 77.512 231.571 76.7653 229.011 75.272C226.494 73.7787 224.51 71.6667 223.059 68.936C221.651 66.2053 220.947 63.048 220.947 59.464ZM251.475 59.528C251.475 56.712 250.899 54.2373 249.747 52.104C248.595 49.9707 247.016 48.328 245.011 47.176C243.048 46.024 240.872 45.448 238.483 45.448C236.008 45.448 233.79 46.0027 231.827 47.112C229.864 48.2213 228.307 49.8427 227.155 51.976C226.046 54.0667 225.491 56.5627 225.491 59.464C225.491 62.3227 226.046 64.84 227.155 67.016C228.307 69.1493 229.864 70.792 231.827 71.944C233.79 73.0533 236.008 73.608 238.483 73.608C240.872 73.608 243.048 73.032 245.011 71.88C247.016 70.728 248.595 69.0853 249.747 66.952C250.899 64.8187 251.475 62.344 251.475 59.528ZM294.983 42.056L274.247 93.448H269.575L276.359 76.808L262.023 42.056H266.951L278.855 71.88L290.375 42.056H294.983ZM299.01 59.464C299.01 55.88 299.714 52.744 301.122 50.056C302.572 47.3253 304.556 45.2347 307.074 43.784C309.634 42.2907 312.514 41.544 315.714 41.544C319.042 41.544 321.9 42.312 324.29 43.848C326.722 45.384 328.471 47.3467 329.538 49.736V42.056H334.018V77H329.538V69.256C328.428 71.6453 326.658 73.6293 324.226 75.208C321.836 76.744 318.978 77.512 315.65 77.512C312.492 77.512 309.634 76.7653 307.074 75.272C304.556 73.7787 302.572 71.6667 301.122 68.936C299.714 66.2053 299.01 63.048 299.01 59.464ZM329.538 59.528C329.538 56.712 328.962 54.2373 327.81 52.104C326.658 49.9707 325.079 48.328 323.074 47.176C321.111 46.024 318.935 45.448 316.546 45.448C314.071 45.448 311.852 46.0027 309.89 47.112C307.927 48.2213 306.37 49.8427 305.218 51.976C304.108 54.0667 303.554 56.5627 303.554 59.464C303.554 62.3227 304.108 64.84 305.218 67.016C306.37 69.1493 307.927 70.792 309.89 71.944C311.852 73.0533 314.071 73.608 316.546 73.608C318.935 73.608 321.111 73.032 323.074 71.88C325.079 70.728 326.658 69.0853 327.81 66.952C328.962 64.8187 329.538 62.344 329.538 59.528ZM351.157 32.52V60.872C351.157 64.2427 352.032 66.7813 353.781 68.488C355.573 70.1947 358.048 71.048 361.205 71.048C364.405 71.048 366.88 70.1947 368.629 68.488C370.421 66.7813 371.317 64.2427 371.317 60.872V32.52H378.613V60.744C378.613 64.3707 377.824 67.4427 376.245 69.96C374.666 72.4773 372.554 74.3547 369.909 75.592C367.264 76.8293 364.341 77.448 361.141 77.448C357.941 77.448 355.018 76.8293 352.373 75.592C349.77 74.3547 347.701 72.4773 346.165 69.96C344.629 67.4427 343.861 64.3707 343.861 60.744V32.52H351.157ZM395.409 32.52V77H388.113V32.52H395.409Z" fill="white"/>
<defs>
<filter id="filter0_d_10_15" x="25.8064" y="17.7419" width="59.0967" height="82.9672" filterUnits="userSpaceOnUse" color-interpolation-filters="sRGB">
<feFlood flood-opacity="0" result="BackgroundImageFix"/>
<feColorMatrix in="SourceAlpha" type="matrix" values="0 0 0 0 0 0 0 0 0 0 0 0 0 0 0 0 0 0 127 0" result="hardAlpha"/>
<feOffset dy="4"/>
<feGaussianBlur stdDeviation="2"/>
<feComposite in2="hardAlpha" operator="out"/>
<feColorMatrix type="matrix" values="0 0 0 0 0 0 0 0 0 0 0 0 0 0 0 0 0 0 0.25 0"/>
<feBlend mode="normal" in2="BackgroundImageFix" result="effect1_dropShadow_10_15"/>
<feBlend mode="normal" in="SourceGraphic" in2="effect1_dropShadow_10_15" result="shape"/>
</filter>
<linearGradient id="paint0_linear_10_15" x1="90.129" y1="14.1935" x2="22" y2="96.5161" gradientUnits="userSpaceOnUse">
<stop stop-color="#0A79A8"/>
<stop offset="1" stop-color="#0ED0FB"/>
</linearGradient>
</defs>
</svg>
