<svg width="473" height="165" viewBox="0 0 473 165" fill="none" xmlns="http://www.w3.org/2000/svg">
<circle cx="87" cy="83" r="55" fill="url(#paint0_linear_10_2)"/>
<g filter="url(#filter0_d_10_2)">
<path d="M83.9125 110.099C85.9325 115.303 89.7902 118.392 95.2667 120.574C87.9034 121.434 76.7778 118.16 72.5042 111.309C68.3047 104.577 68.8672 95.2841 74.0455 88.4342C78.5711 82.4476 84.7319 78.432 90.8727 74.3848C94.8148 71.7867 98.9825 69.5023 102.384 66.0837C97.1481 68.4684 91.912 70.7822 86.4703 72.596C82.3791 73.9596 78.1714 75.0097 74.3498 77.1081C68.4837 80.3292 65.8785 86.0066 67.2794 92.5635C67.3299 92.7996 67.2859 93.0557 67.2859 93.2939C66.2487 93.7284 66.04 92.8533 65.6828 92.3709C58.1223 82.1629 62.0021 69.2269 74.0089 63.9097C79.3457 61.5463 85.1346 60.8297 90.5062 58.6467C84.5896 60.2074 78.4648 60.8262 72.6229 62.892C73.8841 60.7437 75.9947 60.0093 78.0423 59.2797C85.2848 56.6994 92.9039 55.3269 100.067 52.4925C103.316 51.2071 106.508 49.7836 107.332 45.742C108.876 45.7345 109.4 46.9385 110.042 47.8781C114.524 54.4417 113.66 63.213 108.014 69.9168C103.094 75.7582 97.1257 80.5298 91.8185 85.9753C88.2908 89.5948 85.0379 93.3611 83.3956 98.2614C82.6343 101.375 82.6343 103.354 82.6343 103.354C82.6343 103.354 83.0893 107.926 83.9125 110.099Z" fill="white"/>
</g>
<path d="M163.072 82.6C163.072 78.2053 164.032 74.28 165.952 70.824C167.872 67.3253 170.496 64.616 173.824 62.696C177.152 60.7333 180.864 59.752 184.96 59.752C189.952 59.752 194.219 60.9467 197.76 63.336C201.344 65.6827 203.947 69.0107 205.568 73.32H200.32C199.04 70.2907 197.077 67.9227 194.432 66.216C191.829 64.5093 188.672 63.656 184.96 63.656C181.675 63.656 178.709 64.424 176.064 65.96C173.461 67.496 171.413 69.7147 169.92 72.616C168.427 75.4747 167.68 78.8027 167.68 82.6C167.68 86.3973 168.427 89.7253 169.92 92.584C171.413 95.4427 173.461 97.64 176.064 99.176C178.709 100.712 181.675 101.48 184.96 101.48C188.672 101.48 191.829 100.648 194.432 98.984C197.077 97.2773 199.04 94.9307 200.32 91.944H205.568C203.947 96.2107 201.344 99.5173 197.76 101.864C194.176 104.211 189.909 105.384 184.96 105.384C180.864 105.384 177.152 104.424 173.824 102.504C170.496 100.541 167.872 97.832 165.952 94.376C164.032 90.92 163.072 86.9947 163.072 82.6ZM231.135 69.416C233.78 69.416 236.148 69.9707 238.239 71.08C240.372 72.1893 242.036 73.896 243.231 76.2C244.468 78.4613 245.087 81.2347 245.087 84.52V105H240.671V85.032C240.671 81.2347 239.711 78.3333 237.791 76.328C235.914 74.3227 233.332 73.32 230.047 73.32C226.676 73.32 223.988 74.3867 221.983 76.52C219.978 78.6533 218.975 81.7893 218.975 85.928V105H214.495V57.64H218.975V76.008C220.084 73.9173 221.706 72.296 223.839 71.144C226.015 69.992 228.447 69.416 231.135 69.416ZM252.947 87.464C252.947 83.88 253.651 80.744 255.059 78.056C256.51 75.3253 258.494 73.2347 261.011 71.784C263.571 70.2907 266.451 69.544 269.651 69.544C272.979 69.544 275.838 70.312 278.227 71.848C280.659 73.384 282.408 75.3467 283.475 77.736V70.056H287.955V105H283.475V97.256C282.366 99.6453 280.595 101.629 278.163 103.208C275.774 104.744 272.915 105.512 269.587 105.512C266.43 105.512 263.571 104.765 261.011 103.272C258.494 101.779 256.51 99.6667 255.059 96.936C253.651 94.2053 252.947 91.048 252.947 87.464ZM283.475 87.528C283.475 84.712 282.899 82.2373 281.747 80.104C280.595 77.9707 279.016 76.328 277.011 75.176C275.048 74.024 272.872 73.448 270.483 73.448C268.008 73.448 265.79 74.0027 263.827 75.112C261.864 76.2213 260.307 77.8427 259.155 79.976C258.046 82.0667 257.491 84.5627 257.491 87.464C257.491 90.3227 258.046 92.84 259.155 95.016C260.307 97.1493 261.864 98.792 263.827 99.944C265.79 101.053 268.008 101.608 270.483 101.608C272.872 101.608 275.048 101.032 277.011 99.88C279.016 98.728 280.595 97.0853 281.747 94.952C282.899 92.8187 283.475 90.344 283.475 87.528ZM326.983 70.056L306.247 121.448H301.575L308.359 104.808L294.023 70.056H298.951L310.855 99.88L322.375 70.056H326.983ZM331.01 87.464C331.01 83.88 331.714 80.744 333.122 78.056C334.572 75.3253 336.556 73.2347 339.074 71.784C341.634 70.2907 344.514 69.544 347.714 69.544C351.042 69.544 353.9 70.312 356.29 71.848C358.722 73.384 360.471 75.3467 361.538 77.736V70.056H366.018V105H361.538V97.256C360.428 99.6453 358.658 101.629 356.226 103.208C353.836 104.744 350.978 105.512 347.65 105.512C344.492 105.512 341.634 104.765 339.074 103.272C336.556 101.779 334.572 99.6667 333.122 96.936C331.714 94.2053 331.01 91.048 331.01 87.464ZM361.538 87.528C361.538 84.712 360.962 82.2373 359.81 80.104C358.658 77.9707 357.079 76.328 355.074 75.176C353.111 74.024 350.935 73.448 348.546 73.448C346.071 73.448 343.852 74.0027 341.89 75.112C339.927 76.2213 338.37 77.8427 337.218 79.976C336.108 82.0667 335.554 84.5627 335.554 87.464C335.554 90.3227 336.108 92.84 337.218 95.016C338.37 97.1493 339.927 98.792 341.89 99.944C343.852 101.053 346.071 101.608 348.546 101.608C350.935 101.608 353.111 101.032 355.074 99.88C357.079 98.728 358.658 97.0853 359.81 94.952C360.962 92.8187 361.538 90.344 361.538 87.528ZM383.157 60.52V88.872C383.157 92.2427 384.032 94.7813 385.781 96.488C387.573 98.1947 390.048 99.048 393.205 99.048C396.405 99.048 398.88 98.1947 400.629 96.488C402.421 94.7813 403.317 92.2427 403.317 88.872V60.52H410.613V88.744C410.613 92.3707 409.824 95.4427 408.245 97.96C406.666 100.477 404.554 102.355 401.909 103.592C399.264 104.829 396.341 105.448 393.141 105.448C389.941 105.448 387.018 104.829 384.373 103.592C381.77 102.355 379.701 100.477 378.165 97.96C376.629 95.4427 375.861 92.3707 375.861 88.744V60.52H383.157ZM427.409 60.52V105H420.113V60.52H427.409Z" fill="black"/>
<defs>
<filter id="filter0_d_10_2" x="57.8064" y="45.7419" width="59.0967" height="82.9672" filterUnits="userSpaceOnUse" color-interpolation-filters="sRGB">
<feFlood flood-opacity="0" result="BackgroundImageFix"/>
<feColorMatrix in="SourceAlpha" type="matrix" values="0 0 0 0 0 0 0 0 0 0 0 0 0 0 0 0 0 0 127 0" result="hardAlpha"/>
<feOffset dy="4"/>
<feGaussianBlur stdDeviation="2"/>
<feComposite in2="hardAlpha" operator="out"/>
<feColorMatrix type="matrix" values="0 0 0 0 0 0 0 0 0 0 0 0 0 0 0 0 0 0 0.25 0"/>
<feBlend mode="normal" in2="BackgroundImageFix" result="effect1_dropShadow_10_2"/>
<feBlend mode="normal" in="SourceGraphic" in2="effect1_dropShadow_10_2" result="shape"/>
</filter>
<linearGradient id="paint0_linear_10_2" x1="122.129" y1="42.1935" x2="54" y2="124.516" gradientUnits="userSpaceOnUse">
<stop stop-color="#0A79A8"/>
<stop offset="1" stop-color="#0ED0FB"/>
</linearGradient>
</defs>
</svg>
